<svg width="300" height="301" viewBox="0 0 300 301" fill="none" xmlns="http://www.w3.org/2000/svg">
<path d="M300 151C300 233.843 232.843 301 150 301C67.1573 301 0 160.843 0 78C0 -4.84271 67.1573 1.00001 150 1.00001C232.843 1.00001 300 68.1573 300 151Z" fill="url(#paint0_linear)"/>
<g filter="url(#filter0_d)">
<path d="M213.992 84.48C213.992 89.28 213.224 94.176 211.688 99.168C210.152 104.16 207.848 108.864 204.776 113.28C201.704 117.504 197.768 121.248 192.968 124.512C188.168 127.776 182.504 130.272 175.976 132V133.152C181.736 134.112 187.208 135.744 192.392 138.048C197.768 140.352 202.472 143.52 206.504 147.552C210.536 151.584 213.8 156.48 216.296 162.24C218.792 168 220.04 174.816 220.04 182.688C220.04 193.056 217.832 202.08 213.416 209.76C209.192 217.248 203.528 223.392 196.424 228.192C189.512 232.992 181.544 236.544 172.52 238.848C163.496 241.152 154.28 242.304 144.872 242.304C141.608 242.304 137.768 242.304 133.352 242.304C128.936 242.304 124.328 242.112 119.528 241.728C114.728 241.536 109.928 241.152 105.128 240.576C100.328 240.192 96.1043 239.52 92.4563 238.56V40.128C99.5603 38.976 107.816 38.016 117.224 37.248C126.632 36.48 136.904 36.096 148.04 36.096C155.528 36.096 163.112 36.768 170.792 38.112C178.664 39.264 185.768 41.664 192.104 45.312C198.44 48.768 203.624 53.664 207.656 60C211.88 66.336 213.992 74.496 213.992 84.48ZM147.176 221.568C153.32 221.568 159.272 220.8 165.032 219.264C170.792 217.728 175.88 215.424 180.296 212.352C184.712 209.28 188.168 205.44 190.664 200.832C193.352 196.224 194.696 190.752 194.696 184.416C194.696 176.544 193.064 170.208 189.8 165.408C186.728 160.608 182.6 156.864 177.416 154.176C172.424 151.488 166.76 149.664 160.424 148.704C154.088 147.744 147.752 147.264 141.416 147.264H116.36V219.552C117.704 219.936 119.624 220.224 122.12 220.416C124.616 220.608 127.304 220.8 130.184 220.992C133.064 221.184 136.04 221.376 139.112 221.568C142.184 221.568 144.872 221.568 147.176 221.568ZM131.336 127.104C134.6 127.104 138.536 127.008 143.144 126.816C147.752 126.624 151.592 126.336 154.664 125.952C159.272 124.416 163.592 122.592 167.624 120.48C171.656 118.176 175.208 115.488 178.28 112.416C181.544 109.344 184.04 105.888 185.768 102.048C187.688 98.208 188.648 93.984 188.648 89.376C188.648 83.04 187.4 77.76 184.904 73.536C182.6 69.312 179.432 65.952 175.4 63.456C171.368 60.96 166.76 59.232 161.576 58.272C156.392 57.312 151.112 56.832 145.736 56.832C139.4 56.832 133.544 57.024 128.168 57.408C122.984 57.6 119.048 57.984 116.36 58.56V127.104H131.336Z" fill="#2D476D"/>
</g>
<defs>
<filter id="filter0_d" x="88.4562" y="36.096" width="147.584" height="226.208" filterUnits="userSpaceOnUse" color-interpolation-filters="sRGB">
<feFlood flood-opacity="0" result="BackgroundImageFix"/>
<feColorMatrix in="SourceAlpha" type="matrix" values="0 0 0 0 0 0 0 0 0 0 0 0 0 0 0 0 0 0 127 0" result="hardAlpha"/>
<feOffset dx="6" dy="10"/>
<feGaussianBlur stdDeviation="5"/>
<feComposite in2="hardAlpha" operator="out"/>
<feColorMatrix type="matrix" values="0 0 0 0 0.176471 0 0 0 0 0.278431 0 0 0 0 0.427451 0 0 0 0.7 0"/>
<feBlend mode="normal" in2="BackgroundImageFix" result="effect1_dropShadow"/>
<feBlend mode="normal" in="SourceGraphic" in2="effect1_dropShadow" result="shape"/>
</filter>
<linearGradient id="paint0_linear" x1="80" y1="-8" x2="286" y2="301" gradientUnits="userSpaceOnUse">
<stop stop-color="white"/>
<stop offset="1" stop-color="#5C5C5C"/>
</linearGradient>
</defs>
</svg>
